<?xml version="1.0" encoding="UTF-8"?>
<svg width="194px" height="51px" viewBox="0 0 194 51" version="1.1" xmlns="http://www.w3.org/2000/svg" xmlns:xlink="http://www.w3.org/1999/xlink">
    <!-- Generator: Sketch 52.6 (67491) - http://www.bohemiancoding.com/sketch -->
    <title>Group 23</title>
    <desc>Created with Sketch.</desc>
    <defs>
        <polygon id="path-1" points="0.00355802469 0.031423913 19.0433029 0.031423913 19.0433029 36.8470413 0.00355802469 36.8470413"></polygon>
        <path d="M23.9958806,0.326565217 C21.9927761,0.336217391 20.0804776,0.506202899 18.3976119,0.803811594 C13.4398209,1.67786957 12.5398209,3.50695652 12.5398209,6.88092754 L12.5398209,11.3370145 L24.2548657,11.3370145 L24.2548657,12.8218406 L12.5398209,12.8218406 L8.14352239,12.8218406 C4.73856716,12.8218406 1.75755224,14.8643478 0.824776119,18.7493478 C-0.250925373,23.2027536 -0.298208955,25.9820435 0.824776119,30.6322464 C1.65761194,34.0936232 3.64620896,36.5592174 7.05116418,36.5592174 L11.0788657,36.5592174 L11.0788657,31.2183478 C11.0788657,27.3585507 14.4241791,23.955087 18.3976119,23.955087 L30.0992239,23.955087 C33.3558806,23.955087 35.9564776,21.2782174 35.9564776,18.0141739 L35.9564776,6.88092754 C35.9564776,3.71233333 33.2779701,1.332 30.0992239,0.803811594 C28.1439403,0.478855072 26.1166567,0.326028986 24.1667463,0.326028986 C24.1092537,0.326028986 24.0528358,0.326028986 23.9958806,0.326565217 M15.4622687,6.14521739 C15.4622687,4.91242029 16.4455522,3.9102029 17.6604179,3.9102029 C18.8704478,3.9102029 19.8580299,4.91242029 19.8580299,6.14521739 C19.8580299,7.37318841 18.8704478,8.36628986 17.6604179,8.36628986 C16.4455522,8.36628986 15.4622687,7.37318841 15.4622687,6.14521739" id="path-3"></path>
        <linearGradient x1="-3.31431434%" y1="3.85175714%" x2="71.2071614%" y2="67.9624785%" id="linearGradient-5">
            <stop stop-color="#599ED4" offset="0%"></stop>
            <stop stop-color="#2F6997" offset="100%"></stop>
        </linearGradient>
        <path d="M25.3765588,0.490561031 L25.3765588,5.70472399 C25.3765588,9.74660225 21.9143382,13.1482203 17.9656765,13.1482203 L6.11588235,13.1482203 C2.86967647,13.1482203 0.183911765,15.8977314 0.183911765,19.1146486 L0.183911765,30.2947014 C0.183911765,33.4755401 2.97958824,35.3473185 6.11588235,36.2605913 C8.04532353,36.821694 9.93395588,37.1469398 11.9237941,37.1555556 L12.08975,37.1555556 C13.9228824,37.1469398 15.8447059,36.8696193 17.9656765,36.2605913 C20.9523382,35.4043981 23.8971029,33.6828573 23.8971029,30.2947014 L23.8971029,25.8198802 L12.0473088,25.8198802 L12.0473088,24.3277346 L23.8971029,24.3277346 L29.8285294,24.3277346 C33.2766029,24.3277346 34.5618088,21.9476251 35.7605,18.3758454 C36.9989118,14.6979839 36.9466765,11.1612058 35.7605,6.44298873 C34.9084118,3.04621707 33.2809559,0.490561031 29.8285294,0.490561031 L25.3765588,0.490561031 Z M16.4856765,31.0329662 C16.4856765,29.800371 17.4868529,28.8025559 18.7116618,28.8025559 C19.9419118,28.8025559 20.9381912,29.800371 20.9381912,31.0329662 C20.9381912,32.2704077 19.9419118,33.2768386 18.7116618,33.2768386 C17.4868529,33.2768386 16.4856765,32.2704077 16.4856765,31.0329662 Z" id="path-6"></path>
        <linearGradient x1="65.0103392%" y1="71.7268347%" x2="38.4529436%" y2="34.3659371%" id="linearGradient-8">
            <stop stop-color="#FFD43B" offset="0%"></stop>
            <stop stop-color="#FFE872" offset="100%"></stop>
        </linearGradient>
    </defs>
    <g id="-" stroke="none" stroke-width="1" fill="none" fill-rule="evenodd">
        <g id="python-logo" transform="translate(0.000000, 1.000000)">
            <g id="Group-23" transform="translate(0.000000, -1.500000)">
                <g id="Group-14" transform="translate(63.000000, 0.500000)">
                    <path d="M20.4350296,25.7020446 C20.4350296,28.9062185 19.6743671,31.5655337 18.1449556,33.6805228 C16.4397992,36.0740663 14.0769473,37.3070554 11.0564,37.3746967 C8.7787251,37.4460663 6.43258519,36.741425 4.01851934,35.2639685 L4.01851934,48.9456207 L0.113317695,47.5693598 L0.113317695,17.200012 C0.754301235,16.4234685 1.57857695,15.7561098 2.57859753,15.1904793 C4.90317366,13.8520337 7.72749053,13.1644359 11.0515481,13.1303489 L11.1070749,13.1857402 C14.1454123,13.1473924 16.4867004,14.3803815 18.1320173,16.8793815 C19.6657416,19.1711967 20.4350296,22.1095989 20.4350296,25.7020446 M15.9443712,25.4405337 C15.9443712,19.1333815 14.1238486,15.8956533 10.4833424,15.7182946 C9.03533416,15.6506533 7.62074979,15.8786098 6.24498025,16.406425 C5.14684444,16.7946967 4.40774568,17.1792402 4.01851934,17.567512 L4.01851934,32.6211641 C6.34740823,34.0650663 8.41537531,34.7361533 10.2186469,34.6306967 C14.0343588,34.3814359 15.9443712,31.3205337 15.9443712,25.4405337" id="Fill-1" fill="#646464"></path>
                    <path d="M44.3033914,34.6812413 C44.3033914,38.9783283 43.8672638,41.9545457 42.9960868,43.6098935 C42.120058,45.2647087 40.4537165,46.5861109 37.9922103,47.5693065 C35.997021,48.34585 33.8390251,48.7682087 31.5230745,48.8401109 L30.8783173,46.4087522 C33.2325436,46.09185 34.8902597,45.7754804 35.8514654,45.4585783 C37.7442267,44.8253065 39.0434449,43.8548935 39.7572062,42.554263 C40.3297247,41.4949043 40.6116712,39.4725891 40.6116712,36.4798609 L40.6116712,35.4748283 C37.9409963,36.6737304 35.142556,37.2686543 32.215272,37.2686543 C30.2928605,37.2686543 28.5963296,36.6737304 27.134844,35.4748283 C25.494379,34.1704696 24.673877,32.5156543 24.673877,30.5103826 L24.673877,14.4516978 L28.5796177,13.1308283 L28.5796177,29.294437 C28.5796177,31.0211543 29.1429716,32.3510783 30.2712967,33.2842087 C31.3990827,34.2168065 32.8605683,34.6647304 34.6509016,34.6306435 C36.441235,34.5928283 38.3598728,33.9089587 40.3981897,32.570513 L40.3981897,13.7129696 L44.3033914,13.7129696 L44.3033914,34.6812413 Z" id="Fill-3" fill="#646464"></path>
                    <path d="M59.5490959,37.1633043 C59.0838572,37.2011196 58.6563551,37.2186957 58.262816,37.2186957 C56.0541453,37.2186957 54.3317379,36.6994022 53.1015239,35.6565543 C51.8750835,34.6137065 51.2599765,33.1745978 51.2599765,31.3376304 L51.2599765,16.1401739 L48.5849889,16.1401739 L48.5849889,13.7130761 L51.2599765,13.7130761 L51.2599765,7.26691304 L55.1608654,5.89491304 L55.1608654,13.7130761 L59.5490959,13.7130761 L59.5490959,16.1401739 L55.1608654,16.1401739 L55.1608654,31.2321739 C55.1608654,32.680337 55.5538654,33.7061413 56.3404045,34.3058587 C57.015351,34.799587 58.0876103,35.0824022 59.5490959,35.1543043 L59.5490959,37.1633043 Z" id="Fill-5" fill="#646464"></path>
                    <g id="Group-9" transform="translate(64.152263, 0.000000)">
                        <mask id="mask-2" fill="white">
                            <use xlink:href="#path-1"></use>
                        </mask>
                        <g id="Clip-8"></g>
                        <path d="M19.0433029,36.8470413 L15.1375621,36.8470413 L15.1375621,21.9537043 C15.1375621,20.4379 14.7790642,19.1335413 14.0653029,18.0443565 C13.2404881,16.8113674 12.095451,16.1956717 10.625879,16.1956717 C8.83500658,16.1956717 6.5961465,17.1282696 3.90875967,18.9939978 L3.90875967,36.8470413 L0.00355802469,36.8470413 L0.00355802469,1.24694348 L3.90875967,0.0309978261 L3.90875967,16.245737 C6.40422881,14.4519109 9.12989136,13.5528674 12.0911383,13.5528674 C14.1591053,13.5528674 15.8340724,14.2409978 17.1160395,15.6124652 C18.4023193,16.9849978 19.0433029,18.6941391 19.0433029,20.7377587 L19.0433029,36.8470413 Z" id="Fill-7" fill="#646464" mask="url(#mask-2)"></path>
                    </g>
                    <path d="M108.230313,24.857913 C108.230313,28.307087 107.337572,31.1778478 105.555326,33.469663 C103.594099,36.0363043 100.885149,37.3241522 97.4284737,37.3241522 C94.001449,37.3241522 91.3307741,36.0363043 89.4040498,33.469663 C87.6563049,31.1778478 86.7845889,28.307087 86.7845889,24.857913 C86.7845889,21.6159239 87.7290827,18.8884348 89.6180704,16.6685217 C91.6132597,14.3127935 94.2364942,13.1304022 97.4802267,13.1304022 C100.722881,13.1304022 103.363906,14.3127935 105.397371,16.6685217 C107.285819,18.8884348 108.230313,21.6159239 108.230313,24.857913 M103.953136,24.8323478 C103.953136,22.4095109 103.487358,20.4085 102.560116,18.8250543 C101.457667,16.8959457 99.7444243,15.878663 97.4284737,15.7732065 C93.146984,16.0182065 91.0110909,19.0492826 91.0110909,24.857913 C91.0110909,27.5214891 91.4553049,29.7461957 92.3523584,31.5320326 C93.4973955,33.807337 95.214951,34.9306087 97.5050251,34.8922609 C101.803766,34.8587065 103.953136,31.507 103.953136,24.8323478" id="Fill-10" fill="#646464"></path>
                    <path d="M130.620639,36.8470413 L126.714898,36.8470413 L126.714898,21.108987 C126.714898,19.3822696 126.189281,18.0358348 125.138047,17.0648891 C124.087351,16.0982043 122.685705,15.6295087 120.93796,15.6673239 C119.084014,15.7014109 117.319018,16.3005957 115.644051,17.4616826 L115.644051,36.8470413 L111.738849,36.8470413 L111.738849,16.9849978 C113.986335,15.3679978 116.053763,14.3123674 117.94275,13.8186391 C119.724458,13.3584652 121.296997,13.1305087 122.651742,13.1305087 C123.578446,13.1305087 124.450701,13.2194543 125.270664,13.3962804 C126.804927,13.746737 128.052392,14.3970522 129.014137,15.3509543 C130.086396,16.4065848 130.620639,17.6731283 130.620639,19.1548457 L130.620639,36.8470413 Z" id="Fill-12" fill="#646464"></path>
                </g>
                <g id="Group-17" transform="translate(0.000000, 1.500000)">
                    <mask id="mask-4" fill="white">
                        <use xlink:href="#path-3"></use>
                    </mask>
                    <g id="Clip-16"></g>
                    <path d="M23.9958806,0.326565217 C21.9927761,0.336217391 20.0804776,0.506202899 18.3976119,0.803811594 C13.4398209,1.67786957 12.5398209,3.50695652 12.5398209,6.88092754 L12.5398209,11.3370145 L24.2548657,11.3370145 L24.2548657,12.8218406 L12.5398209,12.8218406 L8.14352239,12.8218406 C4.73856716,12.8218406 1.75755224,14.8643478 0.824776119,18.7493478 C-0.250925373,23.2027536 -0.298208955,25.9820435 0.824776119,30.6322464 C1.65761194,34.0936232 3.64620896,36.5592174 7.05116418,36.5592174 L11.0788657,36.5592174 L11.0788657,31.2183478 C11.0788657,27.3585507 14.4241791,23.955087 18.3976119,23.955087 L30.0992239,23.955087 C33.3558806,23.955087 35.9564776,21.2782174 35.9564776,18.0141739 L35.9564776,6.88092754 C35.9564776,3.71233333 33.2779701,1.332 30.0992239,0.803811594 C28.1439403,0.478855072 26.1166567,0.326028986 24.1667463,0.326028986 C24.1092537,0.326028986 24.0528358,0.326028986 23.9958806,0.326565217 M15.4622687,6.14521739 C15.4622687,4.91242029 16.4455522,3.9102029 17.6604179,3.9102029 C18.8704478,3.9102029 19.8580299,4.91242029 19.8580299,6.14521739 C19.8580299,7.37318841 18.8704478,8.36628986 17.6604179,8.36628986 C16.4455522,8.36628986 15.4622687,7.37318841 15.4622687,6.14521739" id="Fill-15" fill="url(#linearGradient-5)" mask="url(#mask-4)"></path>
                </g>
                <g id="Group-20" transform="translate(12.000000, 13.500000)">
                    <mask id="mask-7" fill="white">
                        <use xlink:href="#path-6"></use>
                    </mask>
                    <g id="Clip-19"></g>
                    <path d="M25.3765588,0.490561031 L25.3765588,5.70472399 C25.3765588,9.74660225 21.9143382,13.1482203 17.9656765,13.1482203 L6.11588235,13.1482203 C2.86967647,13.1482203 0.183911765,15.8977314 0.183911765,19.1146486 L0.183911765,30.2947014 C0.183911765,33.4755401 2.97958824,35.3473185 6.11588235,36.2605913 C8.04532353,36.821694 9.93395588,37.1469398 11.9237941,37.1555556 L12.08975,37.1555556 C13.9228824,37.1469398 15.8447059,36.8696193 17.9656765,36.2605913 C20.9523382,35.4043981 23.8971029,33.6828573 23.8971029,30.2947014 L23.8971029,25.8198802 L12.0473088,25.8198802 L12.0473088,24.3277346 L23.8971029,24.3277346 L29.8285294,24.3277346 C33.2766029,24.3277346 34.5618088,21.9476251 35.7605,18.3758454 C36.9989118,14.6979839 36.9466765,11.1612058 35.7605,6.44298873 C34.9084118,3.04621707 33.2809559,0.490561031 29.8285294,0.490561031 L25.3765588,0.490561031 Z M16.4856765,31.0329662 C16.4856765,29.800371 17.4868529,28.8025559 18.7116618,28.8025559 C19.9419118,28.8025559 20.9381912,29.800371 20.9381912,31.0329662 C20.9381912,32.2704077 19.9419118,33.2768386 18.7116618,33.2768386 C17.4868529,33.2768386 16.4856765,32.2704077 16.4856765,31.0329662 Z" id="Fill-18" fill="url(#linearGradient-8)" mask="url(#mask-7)"></path>
                </g>
            </g>
        </g>
    </g>
</svg>