<?xml version="1.0" encoding="UTF-8"?>
<svg width="192px" height="60px" viewBox="0 0 192 60" version="1.1" xmlns="http://www.w3.org/2000/svg" xmlns:xlink="http://www.w3.org/1999/xlink">
    <!-- Generator: Sketch 52.6 (67491) - http://www.bohemiancoding.com/sketch -->
    <title>wonder</title>
    <desc>Created with Sketch.</desc>
    <g id="-" stroke="none" stroke-width="1" fill="none" fill-rule="evenodd">
        <g id="wonder-logo" fill="#F6862D">
            <g id="wonder">
                <g id="Group" transform="translate(0.000000, 8.000000)">
                    <path d="M13.0874427,23.9255263 C13.831132,23.9255263 14.5050453,23.5275 14.8769227,22.8952632 L24.149552,6.6925 L27.9143853,13.2485526 C28.2861973,13.9041447 28.9834347,14.27875 29.7038653,14.27875 C30.0524187,14.27875 30.4010373,14.1851316 30.7263973,13.9978289 C31.7024773,13.4358553 32.0510307,12.1715132 31.4700867,11.1646711 C31.4700867,11.1646711 25.939032,1.49447368 25.9157733,1.49447368 C25.7530933,1.19013158 25.497444,0.932565789 25.172084,0.768684211 C24.196004,0.183289474 22.9410813,0.534539474 22.360072,1.51789474 L13.064184,17.7207237 L3.83801973,1.51789474 C3.28026907,0.534539474 2.02532027,0.183289474 1.02601427,0.768684211 C0.049946484,1.33059211 -0.29864912,2.595 0.28234388,3.57835526 L11.3212213,22.8719079 C11.66984,23.5275 12.3437533,23.9255263 13.0874427,23.9255263 Z" id="Path"></path>
                    <path d="M45.9946667,5.33447368 C46.66858,5.33447368 47.3425587,5.05348684 47.80734,4.56177632 C48.29538,4.09348684 48.5510293,3.41447368 48.5510293,2.73546053 C48.5510293,2.05644737 48.2721213,1.37743421 47.80734,0.909144737 C46.8545187,-0.0508552632 45.111556,-0.0508552632 44.1587347,0.909144737 C43.6706947,1.40085526 43.3917867,2.05644737 43.3917867,2.73546053 C43.3917867,3.41447368 43.6706947,4.09348684 44.1587347,4.56177632 C44.6467747,5.05348684 45.320688,5.33447368 45.9946667,5.33447368 Z" id="Path"></path>
                    <path d="M35.1646213,24.3938158 C35.8385347,24.3938158 36.5125133,24.1128289 37.0005533,23.6211184 C37.4885933,23.1528289 37.7442427,22.4738158 37.7442427,21.7948026 C37.7442427,21.1157895 37.4653347,20.4367763 37.0005533,19.9684868 C36.047732,19.0084868 34.3047693,19.0084868 33.3518827,19.9684868 C32.863908,20.4601974 32.585,21.1157895 32.585,21.7948026 C32.585,22.4738158 32.863908,23.1528289 33.3518827,23.6211184 C33.8167293,24.1128289 34.4906427,24.3938158 35.1646213,24.3938158 Z" id="Path"></path>
                </g>
                <path d="M64.5115442,32 C58.1642377,32 53,26.8408673 53,20.5000319 C53,14.1591327 58.1642377,9 64.5115442,9 C70.8585308,9 76,14.1591327 76,20.5000319 C76,26.8408673 70.836146,32 64.5115442,32 Z M64.5115442,13.0681732 C60.393764,13.0681732 57.0495385,16.4091251 57.0495385,20.5000319 C57.0495385,24.5908749 60.393764,27.9318268 64.5115442,27.9318268 C68.6066198,27.9318268 71.9509092,24.5908749 71.9509092,20.5000319 C71.9509092,16.3863915 68.6066198,13.0681732 64.5115442,13.0681732 Z" id="Shape" fill-rule="nonzero"></path>
                <path d="M102.920457,31 C101.775592,31 100.840914,30.0640876 100.840914,28.9176016 L100.840914,18.5524183 C100.840914,16.4933586 100.256987,14.8087689 99.135768,13.6856215 C98.1071628,12.6795618 96.6824855,12.1413924 94.9996716,12.1413924 C91.7759204,12.1413924 89.1590857,14.7619602 89.1590857,17.9674402 L89.1590857,28.8941972 C89.1590857,30.0406833 88.224408,30.9765956 87.0795428,30.9765956 C85.9346777,30.9765956 85,30.0406833 85,28.8941972 L85,10.1058028 C85,8.95931673 85.9346777,8.02340438 87.0795428,8.02340438 C88.224408,8.02340438 89.1590857,8.95931673 89.1590857,10.1058028 L89.1590857,10.2461633 C91.5657329,8.32752988 93.7615357,8 94.9996716,8 C99.9765181,8 105,11.2756932 105,18.575757 L105,28.941006 C105,30.0640876 104.065322,31 102.920457,31 Z" id="Path"></path>
                <path d="M124.511512,32 C118.16384,32 113,26.6900651 113,20.1637398 C113,13.6374145 118.16384,8.32747961 124.511512,8.32747961 C127.264196,8.32747961 129.903037,9.33334976 131.950281,11.1579025 L131.950281,2.0818699 C131.950281,0.935674821 132.86038,0 133.97514,0 C135.0899,0 136,0.935674821 136,2.0818699 L136,29.5906833 C136,30.7368784 135.0899,31.6725532 133.97514,31.6725532 C132.86038,31.6725532 131.950281,30.7368784 131.950281,29.5906833 L131.950281,29.1695771 C129.880012,30.9941956 127.264196,32 124.511512,32 Z M124.511512,12.5146179 C120.39336,12.5146179 117.072104,15.9532031 117.072104,20.1637398 C117.072104,24.3742765 120.416384,27.8128617 124.511512,27.8128617 C128.60664,27.8128617 131.950281,24.3742765 131.950281,20.1637398 C131.950281,15.9298047 128.60664,12.5146179 124.511512,12.5146179 Z" id="Shape" fill-rule="nonzero"></path>
                <path d="M157.50032,32 C154.425502,32 151.533777,30.7954361 149.370585,28.6363144 C147.184346,26.454523 146,23.5681801 146,20.5000319 C146,17.4318199 147.206753,14.545477 149.370585,12.3636856 C151.556183,10.1818303 154.425502,9 157.50032,9 C160.574498,9 163.466223,10.2045639 165.629415,12.3636856 C167.815654,14.5227434 169,17.4090862 169,20.5000319 C169,21.6136613 168.089014,22.5227517 166.973168,22.5227517 L150.327024,22.5227517 C150.668244,23.7272518 151.328917,24.8408811 152.239903,25.7499715 C153.651516,27.1590744 155.518941,27.9318268 157.50032,27.9318268 C159.367106,27.9318268 161.052718,27.2954125 162.39583,26.113646 C162.783144,25.7499715 163.28441,25.5454326 163.83049,25.5454326 C164.354163,25.5681662 164.855429,25.7727052 165.242742,26.1590495 C165.629415,26.5227239 165.834915,27.0454701 165.834915,27.5681523 C165.834915,27.8181586 165.788822,28.0681648 165.697915,28.2954374 L165.834915,28.4317755 L164.627522,29.6363394 L164.582069,29.5908721 C162.555237,31.136313 160.073232,32 157.50032,32 Z M150.327024,18.4772483 L164.672976,18.4772483 C164.331756,17.2500146 163.69413,16.1591189 162.760097,15.2500285 C161.348484,13.8409256 159.481059,13.0681732 157.477273,13.0681732 C155.495894,13.0681732 153.606062,13.8409256 152.216856,15.2500285 C151.30587,16.1591189 150.668244,17.2500146 150.327024,18.4772483 Z" id="Shape" fill-rule="nonzero"></path>
                <path d="M180.977894,31 C179.88899,31 179,30.0763042 179,28.9447833 L179,10.3785362 C179,9.24701531 179.88899,8.32331949 180.977894,8.32331949 C182.066798,8.32331949 182.955788,9.24701531 182.955788,10.3785362 L182.955788,10.6787568 C184.933683,8.96989359 187.400115,8 190.022731,8 C191.111634,8 192,8.92369582 192,10.0552167 C192,11.1868025 191.111634,12.1104983 190.022731,12.1104983 C186.133788,12.1104983 182.955788,15.4126655 182.955788,19.4538671 L182.955788,28.9447833 C182.955788,30.0763042 182.066798,31 180.977894,31 Z" id="Path"></path>
                <path d="M128.023229,45.5282711 C126.778919,45.5282711 125.627236,45.9927125 124.751491,46.7590604 L124.751491,41.8824256 C124.751491,41.3947556 124.359608,41 123.875745,41 C123.391883,41 123,41.3947556 123,41.8824256 L123,56.1175744 C123,56.6052444 123.391883,57 123.875745,57 C124.359608,57 124.751491,56.6052444 124.751491,56.1175744 L124.751491,50.5907347 L124.751491,50.5675061 C124.751491,48.7561324 126.203078,47.2931876 127.99991,47.2931876 C129.797391,47.2931876 131.248978,48.7561324 131.248978,50.5675061 L131.248978,56.1175744 C131.248978,56.6052444 131.640861,57 132.124723,57 C132.608586,57 132.999821,56.6052444 132.999821,56.1175744 L132.999821,50.5675061 C133.02314,47.7808576 130.765116,45.5282711 128.023229,45.5282711 Z" id="Path"></path>
                <path d="M44.5444833,45.1427558 C44.1256188,44.8972646 43.5903777,45.0446007 43.3344668,45.486471 L38.5409121,54.2504851 L33.7474229,45.461915 C33.4216467,44.8972646 32.5374063,44.8972646 32.2116302,45.461915 L27.4181409,54.2259291 L22.6478747,45.461915 C22.4151867,45.0200447 21.8567226,44.8727776 21.4378582,45.1182688 C21.0190591,45.3637599 20.879394,45.9528973 21.112082,46.3947677 L26.6735003,56.5335737 C26.9992765,57.0981551 27.8835168,57.0981551 28.209293,56.5335737 L33.0027822,47.7695596 L37.7963369,56.5335737 C37.959225,56.8281769 38.2384243,57 38.5642005,57 C38.8899767,57 39.1692415,56.8281769 39.3321296,56.5335737 L44.8934825,46.3947677 C45.1261704,45.9528973 44.9632823,45.388247 44.5444833,45.1427558 Z" id="Path"></path>
                <path d="M56.9999546,45 C53.6879969,45 51,47.6880135 51,51 C51,54.3119865 53.6879969,57 56.9999546,57 C60.3119122,57 62.9998417,54.3119865 62.9998417,51 C63.0238609,47.6880135 60.3119122,45 56.9999546,45 Z M56.9999546,55.2000337 C54.6959283,55.2000337 52.8239786,53.3279798 52.8239786,51.0240067 C52.8239786,48.7200337 54.6959283,46.8480472 56.9999546,46.8480472 C59.3039134,46.8480472 61.175863,48.7200337 61.175863,51.0240067 C61.1998823,53.303973 59.3039134,55.2000337 56.9999546,55.2000337 Z" id="Shape" fill-rule="nonzero"></path>
                <path d="M146.000337,45 C142.688108,45 140,47.6880135 140,51 C140,54.3119865 142.688108,57 146.000337,57 C149.312567,57 152,54.3119865 152,51 C152,47.6880135 149.312567,45 146.000337,45 Z M146.000337,55.2000337 C143.696148,55.2000337 141.823784,53.3279798 141.823784,51.0240067 C141.823784,48.7200337 143.696148,46.8480472 146.000337,46.8480472 C148.304526,46.8480472 150.176216,48.7200337 150.176216,51.0240067 C150.176216,53.303973 148.304526,55.2000337 146.000337,55.2000337 Z" id="Shape" fill-rule="nonzero"></path>
                <path d="M167.011784,45 C165.382919,45 163.921722,45.631871 162.8201,46.6614723 L162.8201,46.076482 C162.8201,45.585056 162.412715,45.1871943 161.909713,45.1871943 C161.406711,45.1871943 161,45.585056 161,46.076482 L161,59.110778 C161,59.6021382 161.406711,60 161.909713,60 C162.412715,60 162.8201,59.6021382 162.8201,59.110778 L162.8201,55.0389906 C163.898154,56.0686576 165.382919,56.7004629 167.011784,56.7004629 C170.317322,56.7004629 173,54.0795461 173,50.8502314 C173,47.6209168 170.317322,45 167.011784,45 Z M167.011784,54.9454263 C164.71225,54.9454263 162.8201,53.1201015 162.8201,50.8736389 C162.8201,48.6271764 164.688682,46.8019173 167.011784,46.8019173 C169.311318,46.8019173 171.179227,48.6271764 171.179227,50.8736389 C171.179227,53.096694 169.311318,54.9454263 167.011784,54.9454263 Z" id="Shape" fill-rule="nonzero"></path>
                <path d="M110.751312,50.0901491 L107.272009,50.0901491 C106.442184,50.0901491 105.750988,49.3770404 105.750988,48.467224 C105.750988,47.5820047 106.418864,46.868827 107.248688,46.868827 L110.935285,46.868827 C111.327201,46.868827 111.719116,47.0410067 111.995725,47.3361028 C112.157025,47.5082134 112.386992,47.6065327 112.617607,47.6065327 C112.848222,47.6065327 113.078189,47.5082134 113.23949,47.3361028 C113.585412,46.9672154 113.585412,46.3770231 113.23949,46.0082048 C112.617607,45.3688874 111.811103,45 110.935285,45 L107.248688,45 C105.451059,45 104,46.5492028 104,48.467224 C104,50.3852452 105.451059,51.934448 107.248688,51.934448 L110.727991,51.934448 C111.557816,51.934448 112.249012,52.6475567 112.249012,53.532776 C112.249012,54.4180644 111.580488,55.131173 110.727991,55.131173 L107.041394,55.131173 C106.626806,55.131173 106.257563,54.9589933 105.981603,54.6639663 C105.635681,54.2950789 105.082464,54.2950789 104.73719,54.6639663 C104.391268,55.0327846 104.391268,55.6229769 104.73719,55.9917952 C105.359072,56.6311817 106.165576,57 107.041394,57 L110.727991,57 C112.52562,57 114,55.4507972 114,53.532776 C114,51.663949 112.548293,50.0901491 110.751312,50.0901491 Z" id="Path"></path>
                <path d="M77.1941989,45 C75.795371,45 74.5443528,45.6380096 73.6116023,46.6686988 L73.6116023,45.9815957 C73.6116023,45.466251 73.2510182,45.0490936 72.8058011,45.0490936 C72.3605841,45.0490936 72,45.466251 72,45.9815957 L72,50.9631453 L72,50.9876921 L72,56.0674979 C72,56.5827736 72.3605841,57 72.8058011,57 C73.2510182,57 73.6116023,56.5827736 73.6116023,56.0674979 L73.6116023,50.9631453 C73.6324625,48.6809837 75.2226085,46.8650042 77.1941989,46.8650042 C77.6394159,46.8650042 78,46.4478467 78,45.9325021 C78,45.4417043 77.6394159,45 77.1941989,45 Z" id="Path"></path>
                <path d="M91.2569302,51.3337887 L95.71499,47.2235018 C96.0715095,46.898432 96.0934395,46.3410762 95.7814067,45.9695492 C95.4693738,45.5979569 94.9349079,45.5747283 94.5777618,45.8998634 L89.6303493,50.4513631 L88.6942507,50.4513631 L88.6942507,41.8824256 C88.6942507,41.3947556 88.3151746,41 87.8471254,41 C87.3790761,41 87,41.3947556 87,41.8824256 L87,51.3337887 C87,51.3337887 87,51.3337887 87,51.3570173 L87,56.1175744 C87,56.6052444 87.3790761,57 87.8471254,57 C88.3151746,57 88.6942507,56.6052444 88.6942507,56.1175744 L88.6942507,52.2162796 L89.6303493,52.2162796 L94.5777618,56.7677793 C94.7337783,56.9070856 94.9349079,56.9767714 95.1354109,56.9767714 C95.357844,56.9767714 95.6034602,56.883857 95.7594766,56.6748649 C96.0715095,56.3033379 96.0270229,55.7459821 95.6924334,55.4441409 L91.2569302,51.3337887 Z" id="Path"></path>
            </g>
        </g>
    </g>
</svg>