<?xml version="1.0" encoding="UTF-8"?>
<svg width="194px" height="34px" viewBox="0 0 194 34" version="1.1" xmlns="http://www.w3.org/2000/svg" xmlns:xlink="http://www.w3.org/1999/xlink">
    <!-- Generator: Sketch 52.6 (67491) - http://www.bohemiancoding.com/sketch -->
    <title>microbit</title>
    <desc>Created with Sketch.</desc>
    <g id="-" stroke="none" stroke-width="1" fill="none" fill-rule="evenodd">
        <g id="microbit_logo">
            <g id="microbit" transform="translate(-1.000000, 0.000000)">
                <rect id="backgroundrect" x="0" y="1" width="195.473685" height="34.2105261"></rect>
                <g id="Layer-1" transform="translate(1.000000, 0.000000)" fill="#000000" fill-rule="nonzero">
                    <path d="M37.6994745,21.2196843 C36.0224745,21.2196843 34.6644745,19.8556843 34.6644745,18.1776843 C34.6644745,16.4996843 36.0214745,15.1396843 37.6994745,15.1396843 C39.3834745,15.1396843 40.7384745,16.4996843 40.7384745,18.1776843 C40.7384745,19.8556843 39.3834745,21.2196843 37.6994745,21.2196843 Z M15.3884745,15.1426843 C13.7114745,15.1426843 12.3464745,16.4996843 12.3464745,18.1776843 C12.3464745,19.8556843 13.7094745,21.2196843 15.3884745,21.2196843 C17.0624745,21.2196843 18.4244745,19.8556843 18.4244745,18.1776843 C18.4244745,16.4996843 17.0614745,15.1426843 15.3884745,15.1426843 Z M15.3854745,9.15268425 L37.9614745,9.15268425 C42.9404745,9.15268425 46.9884745,13.1996843 46.9884745,18.1796843 C46.9884745,23.1586843 42.9394745,27.2106843 37.9614745,27.2106843 L15.3854745,27.2106843 C10.4084745,27.2106843 6.35547449,23.1576843 6.35547449,18.1796843 C6.35447449,13.1996843 10.4084745,9.15268425 15.3854745,9.15268425 Z M37.9614745,33.2286843 C46.2604745,33.2286843 53.0084745,26.4786843 53.0084745,18.1796843 C53.0084745,9.88068425 46.2604745,3.12868425 37.9614745,3.12868425 L15.3854745,3.12868425 C7.08647449,3.12868425 0.336474487,9.88068425 0.336474487,18.1796843 C0.336474487,26.4786843 7.08647449,33.2286843 15.3854745,33.2286843 L37.9614745,33.2286843 Z M150.060474,11.2756843 C150.060474,9.82268425 148.865474,8.64268425 147.398474,8.64268425 C145.943474,8.64268425 144.759474,9.82268425 144.759474,11.2756843 C144.759474,12.7466843 145.943474,13.9476843 147.398474,13.9476843 C148.864474,13.9476843 150.060474,12.7456843 150.060474,11.2756843 Z M83.2744745,16.7206843 C83.2744745,11.9566843 80.3814745,8.62768425 76.2434745,8.62768425 C74.2164745,8.62768425 72.4294745,9.47868425 71.0204745,11.0976843 C69.5534745,9.43668425 67.8684745,8.62768425 65.8934745,8.62768425 C61.7314745,8.62768425 58.8274745,11.9566843 58.8274745,16.7206843 L58.8274745,27.1866843 L62.6394745,27.1866843 L62.6394745,16.5426843 C62.6394745,14.1266843 63.9754745,12.4386843 65.8934745,12.4386843 C67.5104745,12.4386843 69.1434745,13.8476843 69.1434745,16.5426843 L69.1434745,27.1876843 L72.9914745,27.1876843 L72.9914745,16.5426843 C72.9914745,14.1266843 74.3294745,12.4386843 76.2434745,12.4386843 C78.1064745,12.4386843 79.4604745,14.1656843 79.4604745,16.5426843 L79.4604745,27.1876843 L83.2744745,27.1876843 L83.2744745,16.7206843 Z M90.2274745,9.08868425 L86.3814745,9.08868425 L86.3814745,27.1876843 L90.2274745,27.1876843 L90.2274745,9.08868425 Z M90.7964745,3.96068425 C90.7964745,2.58368425 89.7004745,1.50668425 88.3044745,1.50668425 C86.9044745,1.50668425 85.8514745,2.56068425 85.8514745,3.96068425 C85.8514745,5.35868425 86.9294745,6.45468425 88.3044745,6.45468425 C89.6794745,6.45468425 90.7964745,5.33768425 90.7964745,3.96068425 Z M109.124474,24.8746843 L109.700474,24.3536843 L106.872474,21.6956843 L106.384474,22.1506843 C105.132474,23.2996843 103.880474,23.8366843 102.439474,23.8366843 C99.3754745,23.8366843 96.8824745,21.2796843 96.8824745,18.1376843 C96.8824745,15.0166843 99.3744745,12.4776843 102.439474,12.4776843 C103.871474,12.4776843 105.085474,12.9986843 106.388474,14.1706843 L106.900474,14.6306843 L109.648474,11.8286843 L109.158474,11.3266843 C107.404474,9.53368425 105.142474,8.63068425 102.439474,8.63068425 C99.9804745,8.63068425 97.5704745,9.65268425 95.8344745,11.4286843 C94.0964745,13.1626843 93.1434745,15.5476843 93.1434745,18.1376843 C93.1434745,20.7336843 94.0964745,23.1166843 95.8274745,24.8426843 C97.5984745,26.6536843 99.9444745,27.6536843 102.442474,27.6536843 C104.843474,27.6506843 107.089474,26.7166843 109.124474,24.8746843 Z M116.374474,17.9276843 C116.374474,14.6056843 117.519474,13.2416843 120.591474,12.8986843 L121.232474,12.8286843 L121.232474,9.03168425 L120.455474,9.08968425 C114.826474,9.54768425 112.312474,12.3366843 112.312474,18.1376843 L112.312474,27.1886843 L116.374474,27.1886843 L116.374474,17.9276843 Z M138.372474,24.8506843 C140.134474,23.0946843 141.101474,20.7046843 141.101474,18.1356843 C141.101474,15.5706843 140.134474,13.1846843 138.378474,11.4336843 C136.608474,9.62468425 134.273474,8.62768425 131.802474,8.62768425 C129.310474,8.62768425 126.962474,9.62468425 125.189474,11.4336843 C123.437474,13.2256843 122.468474,15.6076843 122.468474,18.1356843 C122.468474,20.6656843 123.437474,23.0516843 125.189474,24.8426843 C126.960474,26.6526843 129.310474,27.6506843 131.802474,27.6506843 C134.274474,27.6506843 136.610474,26.6526843 138.372474,24.8506843 Z M137.143474,18.1366843 C137.143474,21.3166843 134.782474,23.8016843 131.766474,23.8016843 C128.821474,23.8016843 126.420474,21.2606843 126.420474,18.1366843 C126.420474,14.9996843 128.818474,12.4416843 131.766474,12.4416843 C134.729474,12.4396843 137.143474,14.9996843 137.143474,18.1366843 Z M150.060474,24.5546843 C150.060474,23.0866843 148.865474,21.8876843 147.398474,21.8876843 C145.943474,21.8876843 144.759474,23.0866843 144.759474,24.5546843 C144.759474,26.0076843 145.943474,27.1866843 147.398474,27.1866843 C148.864474,27.1866843 150.060474,26.0076843 150.060474,24.5546843 Z M169.567474,24.8506843 C171.327474,23.0946843 172.297474,20.7046843 172.297474,18.1356843 C172.297474,15.6076843 171.324474,13.2246843 169.568474,11.4336843 C167.822474,9.64668425 165.488474,8.66368425 162.994474,8.66368425 C160.959474,8.66368425 159.154474,9.23568425 157.510474,10.4076843 L157.510474,0.473684251 L153.694474,0.473684251 L153.702474,16.0556843 C153.665474,16.4666843 153.665474,16.8766843 153.665474,17.2536843 C153.665474,23.3726843 157.501474,27.6496843 162.995474,27.6496843 C165.470474,27.6506843 167.802474,26.6526843 169.567474,24.8506843 Z M168.554474,18.1736843 C168.554474,21.2966843 166.060474,23.8336843 162.995474,23.8336843 C159.880474,23.8336843 157.438474,21.3496843 157.438474,18.1736843 C157.438474,15.0306843 159.932474,12.4756843 162.995474,12.4756843 C166.060474,12.4756843 168.554474,15.0316843 168.554474,18.1736843 Z M179.435474,9.08868425 L175.589474,9.08868425 L175.589474,27.1876843 L179.435474,27.1876843 L179.435474,9.08868425 Z M180.007474,3.96068425 C180.007474,2.58368425 178.909474,1.50668425 177.515474,1.50668425 C176.115474,1.50668425 175.058474,2.56068425 175.058474,3.96068425 C175.058474,5.35868425 176.134474,6.45468425 177.515474,6.45468425 C178.888474,6.45468425 180.007474,5.33768425 180.007474,3.96068425 Z M193.837474,23.7196843 L193.218474,23.6306843 C190.363474,23.2216843 189.085474,21.5266843 189.085474,18.1356843 L189.085474,13.0096843 L193.837474,13.0096843 L193.837474,9.33568425 L189.085474,9.33568425 L189.085474,5.32968425 L185.198474,5.32968425 L185.198474,9.33568425 L183.536474,9.33568425 L183.536474,13.0096843 L185.198474,13.0096843 L185.198474,17.5346843 C185.198474,23.7496843 187.311474,26.4666843 192.981474,27.5636843 L193.836474,27.7276843 L193.836474,23.7196843 L193.837474,23.7196843 Z" id="path21"></path>
                </g>
            </g>
        </g>
    </g>
</svg>